<?xml version="1.0" standalone="no"?><svg xmlns="http://www.w3.org/2000/svg" viewBox="0 0 1440 320"><path fill="#40c6d0" fill-opacity="1" d="M0,160L30,160C60,160,120,160,180,170.7C240,181,300,203,360,197.3C420,192,480,160,540,144C600,128,660,128,720,122.7C780,117,840,107,900,128C960,149,1020,203,1080,218.7C1140,235,1200,213,1260,176C1320,139,1380,85,1410,58.7L1440,32L1440,320L1410,320C1380,320,1320,320,1260,320C1200,320,1140,320,1080,320C1020,320,960,320,900,320C840,320,780,320,720,320C660,320,600,320,540,320C480,320,420,320,360,320C300,320,240,320,180,320C120,320,60,320,30,320L0,320Z"></path></svg>